<?xml version="1.0" encoding="UTF-8"?>
<svg xmlns="http://www.w3.org/2000/svg" viewBox="0 0 511.75 148.09">
  <defs>
    <style>.cls-1{fill:#fff;}</style>
  </defs>
  <g id="Ebene_2" data-name="Ebene 2">
    <g id="Ebene_1-2" data-name="Ebene 1">
      <path class="cls-1" d="M380.27,88.53h-4.09a.57.57,0,0,0-.64.64v8.29H365.35V89.17a.57.57,0,0,0-.64-.64h-4.09a.57.57,0,0,0-.64.64v21.22a.57.57,0,0,0,.64.64h4.09a.57.57,0,0,0,.64-.64V102.2h10.19v8.19a.57.57,0,0,0,.64.64h4.09a.57.57,0,0,0,.64-.64V89.17a.57.57,0,0,0-.64-.64m-31.56,22.79a12.32,12.32,0,0,0,7-1.89.59.59,0,0,0,.19-.89l-1.73-3.14a.57.57,0,0,0-.87-.22,9,9,0,0,1-4.38,1.09c-4.07,0-6.72-2.5-6.72-6.51s2.65-6.46,6.72-6.46a9,9,0,0,1,4.38,1.09.55.55,0,0,0,.87-.23L355.91,91a.63.63,0,0,0-.19-.9,12.91,12.91,0,0,0-7-1.89c-7.34,0-12.07,5.09-12.07,11.52s4.73,11.56,12.07,11.56M327.52,111h4.09a.57.57,0,0,0,.64-.64V89.17a.57.57,0,0,0-.64-.64h-4.09a.57.57,0,0,0-.64.64v21.22a.57.57,0,0,0,.64.64m-6.09-4.7h-10v-4.26h8.58a.58.58,0,0,0,.64-.64V98a.58.58,0,0,0-.64-.64h-8.58V93.26h9.8a.57.57,0,0,0,.64-.64V89.17a.57.57,0,0,0-.64-.64H306.74a.57.57,0,0,0-.64.64v21.22a.57.57,0,0,0,.64.64h14.69a.57.57,0,0,0,.64-.64V107a.57.57,0,0,0-.64-.64m-32-13.13H292c2.59,0,4.23,1.51,4.23,3.68s-1.67,3.46-4.2,3.46h-2.59ZM302,110.26l-4.48-6.43a7.45,7.45,0,0,0,4.26-7c0-4.93-3.71-8.35-9.38-8.35h-7.75a.58.58,0,0,0-.64.64v21.22a.58.58,0,0,0,.64.64h4.1a.58.58,0,0,0,.64-.64V105h2.78l3.82,5.61a.86.86,0,0,0,.76.41h4.83c.52,0,.71-.32.42-.77M267.36,93.2h2.56c2.6,0,4.23,1.51,4.23,3.68s-1.66,3.46-4.19,3.46h-2.6ZM280,110.26l-4.47-6.43a7.46,7.46,0,0,0,4.25-7c0-4.93-3.71-8.35-9.38-8.35h-7.74a.57.57,0,0,0-.64.64v21.22a.57.57,0,0,0,.64.64h4.09a.57.57,0,0,0,.64-.64V105h2.79l3.81,5.61a.88.88,0,0,0,.77.41h4.83c.51,0,.7-.32.41-.77m-23.43-3.93h-10v-4.26h8.58a.58.58,0,0,0,.64-.64V98a.58.58,0,0,0-.64-.64h-8.58V93.26h9.8a.57.57,0,0,0,.64-.64V89.17a.57.57,0,0,0-.64-.64H241.85a.57.57,0,0,0-.64.64v21.22a.57.57,0,0,0,.64.64h14.69a.57.57,0,0,0,.64-.64V107a.57.57,0,0,0-.64-.64m-19.43-17.8H218.32a.58.58,0,0,0-.64.64v3.45a.58.58,0,0,0,.64.64H225v17.13a.58.58,0,0,0,.64.64h4.1a.58.58,0,0,0,.64-.64V93.26h6.72a.57.57,0,0,0,.64-.64V89.17a.57.57,0,0,0-.64-.64m-30,22.79c5.12,0,8.22-2.78,8.22-7,0-4.61-3.26-5.92-6.56-7-3-1-4.35-1.31-4.35-2.62s1.31-1.83,3-1.83a9.17,9.17,0,0,1,4.87,1.41.64.64,0,0,0,1-.23L215,91.18a.6.6,0,0,0-.16-.89,13,13,0,0,0-7.33-2.05c-5.16,0-8.51,2.66-8.51,6.85s3.23,5.48,6.78,6.6c3.07,1,4.23,1.47,4.23,3s-1.22,2-2.69,2a10,10,0,0,1-6.12-2.08.57.57,0,0,0-.89.16l-1.89,3a.74.74,0,0,0,.19,1,13.7,13.7,0,0,0,8.55,2.5m-23.56-5A6.57,6.57,0,1,1,190,99.83a6.35,6.35,0,0,1-6.37,6.53m0,5c6.85,0,11.87-4.89,11.87-11.49s-5-11.59-11.87-11.59-12,5-12,11.59,5.06,11.49,12,11.49m3.87-24.71a2.79,2.79,0,1,0-2.82-2.79,2.71,2.71,0,0,0,2.82,2.79m-7.91-.1a2.72,2.72,0,0,0,2.82-2.78,2.76,2.76,0,0,0-2.82-2.79,2.71,2.71,0,0,0-2.81,2.79,2.74,2.74,0,0,0,2.81,2.78"></path>
      <path class="cls-1" d="M511.11,51.94h-4a.58.58,0,0,0-.65.64V65.2L494.18,52.07a1.11,1.11,0,0,0-.8-.35h-1.86a.58.58,0,0,0-.64.64V73.81a.58.58,0,0,0,.64.64h4a.58.58,0,0,0,.64-.64V61.19l12.33,13.19a1.06,1.06,0,0,0,.8.35h1.85a.57.57,0,0,0,.64-.64V52.58a.58.58,0,0,0-.64-.64m-25.7,17.8h-10V65.48H484a.57.57,0,0,0,.64-.64V61.39a.57.57,0,0,0-.64-.64h-8.58V56.68h9.8a.58.58,0,0,0,.64-.64V52.58a.58.58,0,0,0-.64-.64H470.72a.58.58,0,0,0-.64.64V73.81a.58.58,0,0,0,.64.64h14.69a.58.58,0,0,0,.64-.64V70.38a.58.58,0,0,0-.64-.64m-21.64-17.8h-4a.58.58,0,0,0-.64.64V65.2l-12.3-13.13a1.1,1.1,0,0,0-.8-.35h-1.85a.57.57,0,0,0-.64.64V73.81a.58.58,0,0,0,.64.64h4a.58.58,0,0,0,.64-.64V61.19l12.33,13.19a1.06,1.06,0,0,0,.8.35h1.86a.58.58,0,0,0,.64-.64V52.58a.58.58,0,0,0-.64-.64m-26.58,0h-4a.58.58,0,0,0-.64.64V65.2l-12.3-13.13a1.1,1.1,0,0,0-.8-.35h-1.85a.57.57,0,0,0-.64.64V73.81a.58.58,0,0,0,.64.64h4a.58.58,0,0,0,.64-.64V61.19l12.33,13.19a1.06,1.06,0,0,0,.8.35h1.85a.57.57,0,0,0,.64-.64V52.58a.58.58,0,0,0-.64-.64M406.56,74.45h4.1a.58.58,0,0,0,.64-.64V52.58a.58.58,0,0,0-.64-.64h-4.1a.58.58,0,0,0-.64.64V73.81a.58.58,0,0,0,.64.64M370.92,56.61h2.57c2.59,0,4.22,1.51,4.22,3.69s-1.66,3.46-4.19,3.46h-2.6Zm12.62,17.07-4.48-6.44a7.45,7.45,0,0,0,4.25-6.94c0-4.93-3.71-8.36-9.38-8.36h-7.74a.58.58,0,0,0-.64.64V73.81a.58.58,0,0,0,.64.64h4.09a.58.58,0,0,0,.64-.64V68.43h2.79l3.81,5.6a.87.87,0,0,0,.77.42h4.83c.51,0,.7-.32.42-.77M360.1,69.74h-10V65.48h8.58a.58.58,0,0,0,.64-.64V61.39a.58.58,0,0,0-.64-.64h-8.58V56.68h9.79a.58.58,0,0,0,.64-.64V52.58a.58.58,0,0,0-.64-.64H345.41a.58.58,0,0,0-.64.64V73.81a.58.58,0,0,0,.64.64H360.1a.58.58,0,0,0,.64-.64V70.38a.58.58,0,0,0-.64-.64m-32,0H324.7v-13h3.45c4.26,0,6.7,2.62,6.7,6.56s-2.44,6.47-6.7,6.47m.32-17.77H320a.58.58,0,0,0-.64.64V73.81a.58.58,0,0,0,.64.64h8.51c7.11,0,11.85-4.51,11.85-11.27s-4.74-11.24-11.85-11.24m-15.46,0h-4a.58.58,0,0,0-.64.64V65.2L296.08,52.07a1.11,1.11,0,0,0-.8-.35h-1.86a.58.58,0,0,0-.64.64V73.81a.58.58,0,0,0,.64.64h4a.58.58,0,0,0,.64-.64V61.19l12.33,13.19a1.06,1.06,0,0,0,.8.35H313a.57.57,0,0,0,.64-.64V52.58a.58.58,0,0,0-.64-.64M282.38,74.45h4.09a.58.58,0,0,0,.64-.64V52.58a.58.58,0,0,0-.64-.64h-4.09a.58.58,0,0,0-.64.64V73.81a.58.58,0,0,0,.64.64m-5.45-22.51h-14.5a.57.57,0,0,0-.63.64V73.81a.57.57,0,0,0,.63.64h4.1a.58.58,0,0,0,.64-.64V67.34h8.29a.58.58,0,0,0,.64-.64V63.24a.58.58,0,0,0-.64-.64h-8.29V56.68h9.76a.58.58,0,0,0,.64-.64V52.58a.58.58,0,0,0-.64-.64M245.18,69.71h-3.46v-13h3.46c4.26,0,6.69,2.62,6.69,6.56s-2.43,6.47-6.69,6.47m.32-17.77H237a.58.58,0,0,0-.64.64V73.81a.58.58,0,0,0,.64.64h8.52c7.11,0,11.84-4.51,11.84-11.27s-4.73-11.24-11.84-11.24M221.74,59.6l2.66,6.33h-5.28Zm11.33,14.11L223.7,52.42a.78.78,0,0,0-.77-.48h-2.27a.78.78,0,0,0-.77.48l-9.47,21.29c-.19.45,0,.74.51.74h4.32a.77.77,0,0,0,.74-.52l1.44-3.49h8.67l1.4,3.49a.77.77,0,0,0,.74.52h4.32c.48,0,.7-.29.51-.74M209.51,51.94H195a.57.57,0,0,0-.63.64V73.81a.57.57,0,0,0,.63.64h4.1a.58.58,0,0,0,.64-.64V67.34H208a.58.58,0,0,0,.64-.64V63.24a.58.58,0,0,0-.64-.64h-8.29V56.68h9.76a.58.58,0,0,0,.64-.64V52.58a.58.58,0,0,0-.64-.64M180.77,63.63h-2.53v-7h2.53c2.82,0,4.23,1.86,4.23,3.55s-1.35,3.4-4.23,3.4m.32-11.69H173.5a.58.58,0,0,0-.64.64V73.81a.58.58,0,0,0,.64.64h4.1a.58.58,0,0,0,.64-.64V68.43l2.59,0c5.8,0,9.64-3.24,9.64-8.07,0-5-3.75-8.39-9.38-8.39"></path>
      <path class="cls-1" d="M391.91,65.17l-.11,0a.34.34,0,0,1-.23-.32l-.05-5.77-5.4-2a.32.32,0,0,1-.22-.32.33.33,0,0,1,.23-.32l5.47-1.83.25-5.76a.33.33,0,0,1,.24-.31.34.34,0,0,1,.37.12l3.43,4.64,5.56-1.54a.34.34,0,0,1,.37.13.35.35,0,0,1,0,.39l-3.35,4.7,3.18,4.81a.33.33,0,0,1,0,.39.32.32,0,0,1-.37.12l-5.5-1.74L392.18,65a.37.37,0,0,1-.27.13"></path>
      <path class="cls-1" d="M142.64,74A68.62,68.62,0,1,1,74,5.44,68.69,68.69,0,0,1,142.64,74M74,0a74,74,0,1,0,74,74A74.13,74.13,0,0,0,74,0"></path>
      <path class="cls-1" d="M103.63,105.77c4.4-7.78.17-12.64-.87-13.67a15.85,15.85,0,0,0,5.33-2.85c2.73-2.14,6.42-6.24,8.47-13.65,2.37-8.62-2.09-13.76-4.54-15.83A26.05,26.05,0,0,1,105.36,111a25.85,25.85,0,0,1-7.73-1.17c1.74-.46,4.55-1.57,6-4.06M84.35,94.69a14.39,14.39,0,0,0,11,5.12,14.56,14.56,0,0,0,5.35-1,5.4,5.4,0,0,1-.6,4.06c-.92,1.65-3,3.59-7.47,3.38-3.76-.16-7.12-4.06-9.28-7.3-.32-.5-.6-1-.89-1.54-.08-.15-.16-.31-.25-.46a15.14,15.14,0,0,0,2.14-2.21m-6.69,4.85.4-.13a31.83,31.83,0,0,0,1.85,3,18,18,0,0,1,1.55,8.66c-.36,6.11-4.28,13.18-6.94,17.32Zm-9.54,2.89a31.74,31.74,0,0,0,1.86-3l.41.13,3.14,28.84c-2.31-3.61-6.53-11-6.94-17.33h0a18.24,18.24,0,0,1,1.53-8.62m-12.7,3.77c-4.54.2-6.55-1.73-7.47-3.38a5.47,5.47,0,0,1-.61-4.06,14.53,14.53,0,0,0,5.4,1,14.36,14.36,0,0,0,11-5.12,18.1,18.1,0,0,0,2.14,2.21,21.6,21.6,0,0,1-1.14,2c-2.16,3.24-5.52,7.14-9.28,7.3M31.49,75.6c3.62,13.09,12.38,16.09,13.8,16.5-1,1-5.27,5.89-.83,13.67,1.42,2.5,4.24,3.6,6,4.06A26.06,26.06,0,0,1,16.66,85,26.26,26.26,0,0,1,36,59.77C33.57,61.84,29.12,67,31.49,75.6m33.13,1.84A14.36,14.36,0,0,0,39.2,80.6c-1.17-1.42-3.79-5.36-3.39-11.84a9,9,0,0,1,3.66-6.87,12.5,12.5,0,0,1,7.37-2.36,11.21,11.21,0,0,1,2.53.27A26.05,26.05,0,0,1,67.64,77.44Zm8.06-61.63c-3.62,3.52-13.2,14.08-14.18,28a38.45,38.45,0,0,0,1.87,15.86,31.44,31.44,0,0,0-8.3-4.09,26,26,0,0,1,3.39-31.95,25.7,25.7,0,0,1,17.22-7.8m-6.42,65.8H81.79v4.23H66.26ZM70,70.54l-.69-1.25-.45-.75C64.93,61.9,62.85,51,63.77,42c.78-7.76,7.74-19,9.68-22ZM52.74,76a9.44,9.44,0,1,1-6.53,16.26l-.49-.53a9.19,9.19,0,0,1-2.42-6.29A9.45,9.45,0,0,1,52.74,76m28.9,15c-.63,1.21-3.11,5.31-7.6,5.31S67,92.25,66.4,91Zm-2.42-22.5-.46.75-.69,1.25L74.63,20c2,3,8.91,14.25,9.68,22,.89,9-1.21,19.92-5.09,26.53M96,55.56a30.83,30.83,0,0,0-8.27,4.09,39,39,0,0,0,1.84-15.86c-.94-13.86-10.56-24.45-14.18-28A25.93,25.93,0,0,1,96,55.56m12.86,25a14.36,14.36,0,0,0-25.41-3.16h-3A26.18,26.18,0,0,1,98.71,59.8a12.44,12.44,0,0,1,9.86,2.08,9,9,0,0,1,3.67,6.88h0c.4,6.48-2.22,10.42-3.4,11.84M95.35,76a9.44,9.44,0,0,1,9.4,9.44,9.19,9.19,0,0,1-2.42,6.29l-.5.54A9.43,9.43,0,1,1,95.35,76m10-21.91c-1,0-2.1.06-3.29.17a30.33,30.33,0,0,0,2.7-12.55,30.73,30.73,0,1,0-61.46,0A30.21,30.21,0,0,0,46,54.28c-1.18-.11-2.27-.17-3.25-.17a30.86,30.86,0,1,0,18.71,55.36c-.2,1.84-.13,5.25,1.71,10.29,2.47,6.71,10.64,15.26,10.72,15.35l.17.18.18-.18c.08-.09,8.21-8.64,10.68-15.35,1.83-5,1.91-8.45,1.71-10.29a30.54,30.54,0,0,0,18.75,6.35,30.86,30.86,0,0,0,0-61.71"></path>
    </g>
  </g>
</svg>
